<svg xmlns="http://www.w3.org/2000/svg" width="503" height="164" viewBox="0 0 503 164">
    <defs>
        <style>
            .cls-1 {
            fill: #fff;
            fill-rule: evenodd;
            }
        </style>
    </defs>
    <path id="Taskr." class="cls-1" d="M67.8,141.727H85.4v-120h41.2V6.929H26.8v14.8h41v120Zm128.4-59.4c0-19.2-7.2-39.4-36.8-39.4-12.2,0-24,3.4-32,8.4l4,11.8c6.8-4.6,16.2-7.2,25.4-7.2,19.8-.2,22,14.4,22,22.2v2c-37.4-.2-58.2,12.6-58.2,36,0,14,10,27.8,29.6,27.8,13.8,0,24.2-6.8,29.6-14.4h0.6l1.4,12.2h15.8a162.412,162.412,0,0,1-1.4-23.2v-36.2Zm-17,26.8a19.87,19.87,0,0,1-.8,5.6c-2.8,8.2-11,16.2-23.8,16.2-8.8,0-16.4-5.2-16.4-16.8,0-18.8,21.8-22.2,41-21.8v16.8Zm38.8,28c6.8,4,16.6,6.8,27.2,6.8,22.6,0,36-12,36-29.2,0-14.4-8.8-22.8-25.4-29-12.6-5-18.2-8.6-18.2-16.6,0-7.2,5.6-13.2,16-13.2a37.5,37.5,0,0,1,19.8,5.8l4.2-12.8c-5.2-3.4-13.8-6-23.6-6-20.6,0-33.4,12.8-33.4,28.4,0,11.6,8.2,21,25.8,27.4,12.8,4.8,17.8,9.2,17.8,17.6,0,8.2-6,14.4-18.6,14.4-8.8,0-18-3.6-23.4-6.8ZM321.2-.271H303.8v142h17.4v-36.4l9-10,33.2,46.4H385l-42.6-57,37.2-39.8h-21L330,78.328c-2.8,3.4-6,7.6-8.4,11h-0.4v-89.6Zm79.8,142h17.6v-51.6a52.652,52.652,0,0,1,.6-8.2c2.4-13.2,11.2-22.4,23.6-22.4a27.4,27.4,0,0,1,6,.4v-16.6a35.828,35.828,0,0,0-4.8-.4c-11.8,0-22.6,8.2-27,21.2h-0.6l-0.8-19.2H400.2c0.6,9,.8,18.8.8,30.2v66.6Zm62.2,2.2c7.4,0,12.2-5.4,12.2-12.6,0-7.4-4.8-12.6-11.8-12.6s-12,5.4-12,12.6S456.4,143.927,463.2,143.927Z"/>
</svg>
