<svg id="Capa_1" enable-background="new 0 0 512 512" height="512" viewBox="0 0 512 512" width="512" xmlns="http://www.w3.org/2000/svg"><g><path fill="currentColor" d="m241 330.24v33.523c-17.422 6.213-30 22.707-30 42.237v61c0 24.814 20.186 45 45 45s45-20.186 45-45v-61c0-19.53-12.578-36.024-30-42.237v-33.523c83.969-7.614 150-78.322 150-164.24 0-90.981-74.019-166-165-166s-165 75.019-165 166c0 85.919 66.031 156.627 150 164.24zm-40.605-174.845c5.859-5.859 15.352-5.859 21.211 0l19.394 19.394 49.395-49.395c5.859-5.859 15.352-5.859 21.211 0s5.859 15.352 0 21.211l-60 60c-2.93 2.93-6.768 4.395-10.605 4.395s-7.676-1.465-10.605-4.395l-30-30c-5.861-5.859-5.861-15.351-.001-21.21z"/></g></svg>