<svg id="Capa_1" enable-background="new 0 0 512 512" height="512" viewBox="0 0 512 512" width="512" xmlns="http://www.w3.org/2000/svg"><g><path d="m110 332c-31.724 0-59.549 21.375-67.664 51.977-1.55 5.836-2.336 11.899-2.336 18.023 0 38.598 31.402 70 70 70s70-31.402 70-70-31.402-70-70-70zm0 120c-27.57 0-50-22.43-50-50 0-4.391.561-8.728 1.667-12.893 5.794-21.848 25.669-37.107 48.333-37.107 27.57 0 50 22.43 50 50s-22.43 50-50 50z" fill="#3D3373"/><path d="m508.401 374.02-31.701-136.63c-1.248-5.379-6.62-8.727-12.001-7.481-5.38 1.248-8.729 6.622-7.481 12.001l18.126 78.122c-19.678-17.579-45.556-28.032-73.344-28.032-37.163 0-70.076 18.528-90 46.828v-198.828c0-15.792 6.089-30.705 17.143-41.991 11.379-11.613 26.6-18.009 42.857-18.009 10.634 0 21.09 2.824 30.234 8.164 13.572 7.932 23.67 21.137 27.722 36.246l6.922 29.834c1.249 5.379 6.622 8.729 12.001 7.481 5.38-1.248 8.729-6.622 7.481-12.001 0 0-7.008-30.197-7.035-30.298-4.955-18.673-16.829-35.161-32.888-45.932l-5.075-31.505c-3.923-24.33-24.682-41.989-49.362-41.989-27.57 0-50 22.43-50 50v37.091c-12.925 14.632-20 33.258-20 52.909h-72c0-19.65-7.075-38.276-20-52.909v-37.091c0-27.57-22.43-50-50-50-24.68 0-45.439 17.659-49.363 41.99l-5.074 31.504c-16.058 10.769-27.933 27.258-32.888 45.932-.027.101-.053.203-.076.305l-59 254.29c0 .002 0 .003-.001.005-2.385 9.087-3.598 18.497-3.598 27.974 0 60.654 49.346 110 110 110s110-49.346 110-110v-70h72v70c0 60.654 49.346 110 110 110s110-49.346 110-110c0-9.479-1.214-18.892-3.599-27.98zm-146.401-354.02c14.81 0 27.266 10.586 29.617 25.17l2.911 18.073c-7.285-2.134-14.871-3.243-22.528-3.243-14.296 0-27.979 3.731-40 10.699v-20.699c0-16.542 13.458-30 30-30zm-70 226h-26v-86h26zm-46-86v86h-26v-86zm-96-140c16.542 0 30 13.458 30 30v20.699c-12.021-6.968-25.704-10.699-40-10.699-7.656 0-15.243 1.109-22.528 3.243l2.91-18.072c2.352-14.585 14.808-25.171 29.618-25.171zm-40 472c-49.626 0-90-40.374-90-90 0-7.853 1.011-15.643 3.006-23.157 10.437-39.356 46.21-66.843 86.994-66.843 49.626 0 90 40.374 90 90s-40.374 90-90 90zm0-200c-27.788 0-53.666 10.453-73.344 28.033l45.388-195.622c4.05-15.106 14.144-28.309 27.71-36.24.011-.006.022-.012.032-.019 9.142-5.333 19.589-8.152 30.214-8.152 16.257 0 31.478 6.396 42.855 18.007 11.056 11.288 17.145 26.201 17.145 41.993v198.828c-19.924-28.3-52.837-46.828-90-46.828zm110 20v-46h72v46zm182 180c-49.626 0-90-40.374-90-90s40.374-90 90-90c40.784 0 76.557 27.487 86.995 66.846 1.994 7.511 3.005 15.301 3.005 23.154 0 49.626-40.374 90-90 90z" fill="#3D3373"/><path d="m402 332c-38.598 0-70 31.402-70 70s31.402 70 70 70 70-31.402 70-70c0-6.122-.786-12.189-2.337-18.03-8.115-30.599-35.939-51.97-67.663-51.97zm0 120c-27.57 0-50-22.43-50-50s22.43-50 50-50c22.664 0 42.538 15.255 48.332 37.099 1.106 4.17 1.668 8.511 1.668 12.901 0 27.57-22.43 50-50 50z" fill="#3D3373"/><circle cx="456" cy="196" r="10" fill="#3D3373"/></g></svg>