<?xml version="1.0" encoding="iso-8859-1"?>
<!-- Generator: Adobe Illustrator 19.0.0, SVG Export Plug-In . SVG Version: 6.00 Build 0)  -->
<svg version="1.1" id="Capa_1" xmlns="http://www.w3.org/2000/svg" xmlns:xlink="http://www.w3.org/1999/xlink" x="0px" y="0px"
	 viewBox="0 0 512 512" style="enable-background:new 0 0 512 512;" xml:space="preserve">
<g>
	<g>
		<path d="M356.883,124.529c-26.994-26.805-62.742-41.531-100.759-41.531c-0.346,0-0.694,0.002-1.041,0.004
			c-41.121,0.29-80.224,18.446-107.281,49.811c-3.607,4.182-3.142,10.496,1.04,14.104c4.183,3.608,10.497,3.14,14.104-1.04
			c23.29-26.998,56.925-42.626,92.278-42.875c0.301-0.002,0.597-0.004,0.896-0.004c32.701,0,63.453,12.668,86.673,35.724
			c23.436,23.27,36.343,54.274,36.343,87.3c0,31.539-11.922,61.531-33.569,84.449c-22.728,24.062-36.068,54.518-38.07,86.532H288
			V291.005h6.333c14.521,0,26.333-11.813,26.333-26.332v-1.334c0-14.521-11.813-26.332-26.333-26.332
			c-14.521,0-26.332,11.813-26.332,26.332v7.667h-23.999v-7.667c0-14.521-11.813-26.332-26.332-26.332h-1.694
			c-14.521,0-26.332,11.813-26.332,26.332v1.334c0,14.521,11.813,26.332,26.332,26.332h8.027v105.997h-19.259
			c-1.94-32.37-15.015-62.544-37.308-85.719c-23.021-23.936-35.202-55.437-34.298-88.699c0.15-5.521-4.203-10.118-9.725-10.268
			c-5.545-0.188-10.117,4.203-10.268,9.725c-1.051,38.661,13.11,75.277,39.876,103.106c20.619,21.436,31.974,49.953,31.974,80.3
			v1.555v27.382c0,21.389,16.221,39.053,37.006,41.355v2.261C222,496.748,237.252,512,255.999,512s33.999-15.252,33.999-33.999
			v-2.232c20.895-2.198,37.232-19.917,37.232-41.384v-27.382v-1.552c0-29.949,11.675-58.804,32.873-81.247
			c25.169-26.645,39.03-61.515,39.03-98.183C399.134,187.626,384.129,151.583,356.883,124.529z M288,263.339
			c0-3.492,2.841-6.333,6.333-6.333c3.492,0,6.334,2.841,6.334,6.333v1.334c0,3.492-2.842,6.333-6.334,6.333H288V263.339z
			 M244.001,291.005H268v105.997h-23.999V291.005z M215.974,271.006c-3.492,0-6.333-2.841-6.333-6.333v-1.334
			c0-3.492,2.841-6.333,6.333-6.333h1.694c3.492,0,6.333,2.841,6.333,6.333v7.667H215.974z M270,478.001c0,7.72-6.28,14-14,14
			s-14-6.28-14-14v-2H270V478.001z M307.232,434.385c0,11.92-9.697,21.617-21.617,21.617H280h-47.999h-5.39
			c-11.92,0-21.617-9.697-21.617-21.617v-17.383h102.238V434.385z" fill="currentColor"/>
	</g>
</g>
<g>
	<g>
		<path d="M256,0c-5.522,0-10,4.478-10,10v37.344c0,5.522,4.477,10,10,10c5.522,0,10-4.478,10-10V10C266,4.478,261.522,0,256,0z" fill="currentColor"/>
	</g>
</g>
<g>
	<g>
		<path fill="currentColor" d="M472.02,216.021h-37.344c-5.522,0-10,4.478-10,10s4.478,10,10,10h37.344c5.522,0,10-4.478,10-10
			S477.543,216.021,472.02,216.021z"/>
	</g>
</g>
<g>
	<g>
		<path fill="currentColor" d="M77.324,216.021H39.98c-5.522,0-10,4.478-10,10s4.478,10,10,10h37.344c5.522,0,10-4.478,10-10
			S82.847,216.021,77.324,216.021z"/>
	</g>
</g>
<g>
	<g>
		<path fill="currentColor" d="M136.727,92.606l-26.405-26.406c-3.905-3.903-10.235-3.905-14.143,0c-3.905,3.905-3.905,10.237,0,14.143l26.405,26.406
			c1.954,1.952,4.513,2.929,7.072,2.929s5.118-0.977,7.071-2.929C140.632,102.844,140.632,96.512,136.727,92.606z"/>
	</g>
</g>
<g>
	<g>
		<path fill="currentColor" d="M415.821,66.199c-3.906-3.904-10.236-3.904-14.142,0l-26.405,26.406c-3.905,3.905-3.905,10.237,0,14.143
			c1.953,1.952,4.512,2.929,7.071,2.929s5.118-0.977,7.071-2.929l26.405-26.406C419.726,76.437,419.726,70.105,415.821,66.199z"/>
	</g>
</g>
<g>
	<g>
		<path fill="currentColor" d="M349.612,188.262c-7.493-18.599-20.235-34.427-36.848-45.775c-16.832-11.495-36.506-17.559-56.95-17.559
			c-0.242,0-0.488,0.001-0.73,0.002c-5.523,0.039-9.969,4.548-9.93,10.07c0.039,5.499,4.509,9.93,9.999,9.93
			c0.023,0,0.048,0,0.071,0c0.199-0.002,0.394-0.002,0.592-0.002c33.297,0,62.792,19.892,75.246,50.807
			c1.57,3.898,5.318,6.267,9.278,6.267c1.244,0,2.51-0.234,3.733-0.728C349.196,199.21,351.676,193.383,349.612,188.262z"/>
	</g>
</g>
<g>
	<g>
		<path fill="currentColor" d="M353.977,218.951c-1.859-1.86-4.439-2.931-7.069-2.931c-2.641,0-5.221,1.071-7.08,2.931
			c-1.86,1.859-2.92,4.439-2.92,7.069s1.06,5.21,2.92,7.07c1.859,1.86,4.439,2.93,7.08,2.93c2.63,0,5.21-1.069,7.069-2.93
			c1.86-1.86,2.92-4.44,2.92-7.07S355.837,220.81,353.977,218.951z"/>
	</g>
</g>
<g>
	<g>
		<path fill="currentColor" d="M140.572,167.432c-1.859-1.86-4.439-2.92-7.069-2.92s-5.21,1.059-7.07,2.92c-1.86,1.87-2.93,4.44-2.93,7.08
			c0,2.63,1.069,5.2,2.93,7.07c1.86,1.859,4.44,2.93,7.07,2.93s5.21-1.07,7.069-2.93c1.86-1.87,2.931-4.44,2.931-7.07
			C143.503,171.872,142.433,169.302,140.572,167.432z"/>
	</g>
</g>
<g>
</g>
<g>
</g>
<g>
</g>
<g>
</g>
<g>
</g>
<g>
</g>
<g>
</g>
<g>
</g>
<g>
</g>
<g>
</g>
<g>
</g>
<g>
</g>
<g>
</g>
<g>
</g>
<g>
</g>
</svg>
